PathFileType	4	(X/Y/Z)	C:\Users\chris\Documents\GitHub\baseballds\vids\pitch6_Sports2D\pitch6_Sports2D_px_person00.trc
DataRate	CameraRate	NumFrames	NumMarkers	Units	OrigDataRate	OrigDataStartFrame	OrigNumFrames
30	30	11	22	m	30	116	186
Frame#	Time	Hip			RHip			RKnee			RAnkle			RBigToe			RSmallToe			RHeel			LHip			LKnee			LAnkle			LBigToe			LSmallToe			LHeel			Neck			Head			Nose			RShoulder			RElbow			RWrist			LShoulder			LElbow			LWrist		
		X1	Y1	Z1	X2	Y2	Z2	X3	Y3	Z3	X4	Y4	Z4	X5	Y5	Z5	X6	Y6	Z6	X7	Y7	Z7	X8	Y8	Z8	X9	Y9	Z9	X10	Y10	Z10	X11	Y11	Z11	X12	Y12	Z12	X13	Y13	Z13	X14	Y14	Z14	X15	Y15	Z15	X16	Y16	Z16	X17	Y17	Z17	X18	Y18	Z18	X19	Y19	Z19	X20	Y20	Z20	X21	Y21	Z21	X22	Y22	Z22
116	3.8666666666666667	705.939013566081	543.7079173724961	0.0	658.9151041935006	553.9499932001868	0.0	670.296580115673	761.4527536818389	0.0	655.2669574101285	815.7212467875229	0.0	647.0320625631248	846.212517158102	0.0	625.9683457418313	842.051126823249	0.0	648.2612023787638	816.944679881128	0.0	760.1153503102882	545.8870576199286	0.0	660.9869646086031	439.59046534679175	0.0	603.5560560184695	621.2885177812693	0.0	530.468340396766	591.8894287080357	0.0	542.3147113066144	620.9856951477384	0.0	592.4117653922965	654.8640635191067	0.0	697.5012816467486	326.3757279830936	0.0	706.448063807344	225.68919993454682	0.0	711.7955514356248	289.3806053320219	0.0	626.4930655685376	349.2157511444302	0.0	570.2384159715025	448.680613572774	0.0	613.8840105515422	362.2870646062032	0.0	767.6715718332991	342.2479645852394	0.0	781.1971586246361	443.42176628017023	0.0	710.1753471612267	345.7018145725023	0.0
117	3.9	714.185275355854	539.7970699232163	0.0	666.9154069271963	550.5567605167392	0.0	671.3014810577029	762.2175504997132	0.0	652.4042426141079	802.1100071853612	0.0	630.6867482254922	773.3276236076418	0.0	616.6101267885213	767.7971702263467	0.0	644.1557635652882	757.9315970665583	0.0	767.3160640649928	539.1277066723698	0.0	658.6527970499027	448.3006148935965	0.0	603.0685267463316	626.6956722055709	0.0	529.1884254668638	605.8064646169342	0.0	539.5536075382963	631.9696390874983	0.0	593.8986655491367	658.789564937671	0.0	698.4458112303557	326.06809285245845	0.0	706.1505528234411	217.0328720632672	0.0	715.444607631216	284.0433167283802	0.0	631.7126045506984	351.8594293793034	0.0	571.1970446614579	455.1217700788404	0.0	607.3712854768078	367.1067923756915	0.0	767.4757601233903	339.389672325486	0.0	781.521253790737	438.1308282954967	0.0	709.6974788167805	343.1814597576998	0.0
118	3.933333333333333	725.1351987000577	540.6882195729378	0.0	678.7701249051553	552.6068313509397	0.0	672.1068233675392	761.6543158780426	0.0	660.974899029884	848.7436968871119	0.0	635.2059257996109	797.7421132109216	0.0	623.7404478223367	792.5133443983966	0.0	660.2977069771065	781.0088856321588	0.0	773.821214211568	539.9787079056903	0.0	654.6176241316721	459.35473198410455	0.0	606.3837626590847	637.7818864053294	0.0	529.8955690593234	629.1690872860147	0.0	542.4196683122565	651.8188357392555	0.0	600.7682214417536	670.3153063973679	0.0	698.4874199624436	327.12299390751554	0.0	704.9059834406963	213.26267755579264	0.0	718.1603419827967	281.82807520015854	0.0	635.229056689117	356.6243893314861	0.0	574.1285132590232	458.7088879479772	0.0	605.3114684641067	369.96826277194276	0.0	766.9868697207914	338.14661225953455	0.0	784.8760427012717	436.20923074997717	0.0	708.6261445993362	348.346725017866	0.0
119	3.966666666666667	730.7146439709849	545.4231582469301	0.0	687.1406779197965	559.2865606621551	0.0	671.5032799543112	756.4829062756594	0.0	670.3297273790164	895.4987412770454	0.0	653.4226510413882	888.3688602422342	0.0	637.0395443725508	884.0548820450749	0.0	678.6994999852664	858.4388357723776	0.0	774.8119045058505	547.0393105690146	0.0	651.3381947586541	473.689920975473	0.0	612.1058343026288	650.0115444574731	0.0	536.2818417381549	652.2805190469605	0.0	552.1436435570763	670.8811330611522	0.0	609.9373039472924	683.1873653871635	0.0	696.2781933306171	331.5313657524767	0.0	702.2087988655529	218.6507234878398	0.0	716.398189573393	285.5689164291755	0.0	635.5685839197743	362.88299931010545	0.0	577.1160857183069	460.25694416387466	0.0	607.6347332833491	376.02697848773005	0.0	764.9021036558743	340.8851834919873	0.0	785.489087598904	438.4489524252574	0.0	705.9846597424546	361.3241044963669	0.0
120	4.0	726.3472546183186	549.3323763066605	0.0	686.6539385540898	564.2162470422699	0.0	668.036161249431	745.2513962065118	0.0	670.6045296424194	897.594190721142	0.0	665.1316846254997	947.9395696418086	0.0	642.6514552377179	944.1077962897041	0.0	682.3308344279475	907.9118029472197	0.0	767.127831326834	552.8788981243729	0.0	649.8887259159211	490.3397524997573	0.0	617.4262957234575	658.2353049034894	0.0	548.6662693977325	666.4277676589093	0.0	565.7886648383942	681.3271513499354	0.0	616.6913573347539	690.6668957423332	0.0	691.2222990391037	340.3414850467744	0.0	697.2135795509162	232.93856262409875	0.0	709.835297088392	295.7304725141497	0.0	633.3145075679648	370.72890177246916	0.0	578.8546447785083	462.14617828672425	0.0	610.3925159696624	389.3708243956675	0.0	758.0656090321804	348.95850388582346	0.0	778.1048018609183	443.4870383382671	0.0	701.557437223147	378.67721523625687	0.0
121	4.033333333333333	715.1106560462839	550.2395951677765	0.0	679.2643712859576	564.0754830150771	0.0	662.0521253756767	729.993152888245	0.0	663.4898567521851	869.9717261970363	0.0	663.3014911950361	940.36789465735	0.0	639.3816001780106	936.7133914099084	0.0	673.5099454256219	900.1833817162675	0.0	752.7995289413196	553.9958627272047	0.0	649.5486234864261	507.1219772849005	0.0	621.2703435972214	662.0581457867638	0.0	563.9304320712043	671.9901870159663	0.0	579.5814488809808	684.1028630704682	0.0	619.9803258884056	692.5331055423413	0.0	684.329480646964	351.92517473894577	0.0	690.3257060071912	251.8257095780527	0.0	701.1395221252257	309.8793647208831	0.0	630.1084578849546	379.8210134342457	0.0	579.6436040693848	465.5163246962371	0.0	610.7907315782287	407.71534243478885	0.0	746.4075846898518	360.56712754643047	0.0	764.0712770625178	449.3370241829422	0.0	696.26193152816	397.1710872545299	0.0
122	4.066666666666666	702.396353036233	549.5939709091131	0.0	670.0775519884996	561.2802566564524	0.0	655.2509112678388	713.8353805201668	0.0	654.776482101958	839.190366927434	0.0	655.3325302310511	901.6993164916344	0.0	633.2927010033106	898.2459119778686	0.0	661.848651513234	866.41885259859	0.0	736.6054538155995	552.6610039796524	0.0	649.3515879757188	523.2808874247343	0.0	624.3898396809167	664.3505392667257	0.0	579.3346125261405	674.8065776539086	0.0	592.4337024245422	684.6358414058352	0.0	621.883720186046	692.5687977299609	0.0	677.0485035760132	364.0244576266655	0.0	682.8612793569101	271.2574152989885	0.0	692.4560131214381	324.8774768776285	0.0	626.9805933714387	389.30123209305316	0.0	580.2390232407631	469.6796362964052	0.0	609.608643372801	426.98904209772155	0.0	732.988884977424	372.92631151054206	0.0	748.1750017734959	454.9933237756767	0.0	690.937777425422	415.3919010180542	0.0
123	4.1	690.5154131327615	548.9508276183461	0.0	661.5960061828891	558.4935854034095	0.0	648.6525076086564	698.1720053281911	0.0	646.9349603093401	813.1323964131709	0.0	647.7443872398743	864.7752678674171	0.0	627.8922591680613	861.5899007112525	0.0	651.6003398099552	834.3099780783517	0.0	721.0684455029063	551.3370346233069	0.0	648.9916051602756	539.1303050145682	0.0	627.5195688983581	666.9311461310404	0.0	594.1609081877633	678.2841058750442	0.0	604.8620055247139	685.8463267713079	0.0	623.945753630959	693.0319692539751	0.0	670.0043757259052	375.73147305081943	0.0	675.5842251341066	289.93231696434606	0.0	684.2347102854291	339.3658026245497	0.0	624.0758765329499	398.64562610544795	0.0	580.9412839402235	473.8274616300904	0.0	608.3038580791554	445.5715296027894	0.0	719.9042963142535	384.8301738787031	0.0	732.9599513306323	460.39482193350455	0.0	685.7911381704466	433.2325424735082	0.0
124	4.133333333333333	679.1865569751315	548.6284424999354	0.0	653.7127532969489	556.2087983536542	0.0	642.2683128441179	682.8233626979303	0.0	639.6965302447734	789.3481797656393	0.0	641.5031563248467	834.4672008528871	0.0	623.3142486715944	831.5719043414582	0.0	642.3770406773635	807.8133048664374	0.0	706.0820503608742	550.4972662422209	0.0	648.557100779656	555.0794134809798	0.0	630.8095976364715	669.956030418486	0.0	608.7959678500213	682.5560513373695	0.0	617.3491166353117	687.7645339882085	0.0	626.3525064147667	694.0412258405978	0.0	663.1010382028044	387.2508707727217	0.0	668.4308789649328	308.28145990579026	0.0	676.1456113801332	353.5488217981174	0.0	621.2354779385338	407.8992750470893	0.0	581.7293923212756	477.81267054953963	0.0	607.2485726400262	463.78486863933597	0.0	707.2389367854184	396.4783853919985	0.0	718.2707688378475	465.76670796898014	0.0	680.6814959383667	451.08214527892954	0.0
125	4.166666666666667	667.6379336404573	548.5127918375348	0.0	645.7950616993978	554.0855253611301	0.0	635.8234845183517	667.2153919049599	0.0	632.3697193035844	764.9440953855533	0.0	635.7027255991114	805.5895798107404	0.0	618.9816128541624	802.991151026948	0.0	633.0313748067797	782.4945758848262	0.0	690.829634640925	549.8745583150381	0.0	648.1455963770388	571.571450772353	0.0	634.2413237823548	673.2014533795276	0.0	623.9030198980288	687.0419053229376	0.0	630.2424325709941	689.8240287438424	0.0	628.9236685982428	695.200418048214	0.0	656.055306780745	399.09042729467853	0.0	661.0240417153432	327.0658734925813	0.0	667.7421752717019	368.03064297519546	0.0	618.3297463101501	417.3927031164976	0.0	582.5830276492603	481.832809831363	0.0	606.2858840597704	482.4086047838989	0.0	694.3632720867508	408.4400583875784	0.0	703.1266063778239	471.35159741380545	0.0	675.3938876600726	469.4760475662948	0.0
126	4.2	655.639180753492	548.4975603027797	0.0	637.5987008919628	551.9891952889179	0.0	629.2314238900642	651.1490222195321	0.0	624.7910782635454	739.3165747441955	0.0	629.8136908668915	775.2777664539441	0.0	614.6407609284182	772.9865723959512	0.0	623.2884999994596	755.933174944341	0.0	675.0217653585734	549.3128698757297	0.0	647.7223429435146	588.6154403657782	0.0	637.778657965006	676.4597322402628	0.0	639.7785085372079	691.4819534267951	0.0	643.6833853736983	691.7276548439738	0.0	631.541095049641	696.2166383498273	0.0	648.7661442512326	411.37737314456865	0.0	653.3023028908257	346.5346937370074	0.0	658.8669374512236	383.0189666342138	0.0	615.3160517452404	427.2770830245146	0.0	583.5040915482989	486.0793608391725	0.0	605.3385746197264	501.6843501010784	0.0	681.0122939311384	420.86494822367007	0.0	687.2005411927389	477.21352251897946	0.0	669.9119274572082	488.45961685468956	0.0
